<svg id="visual" viewBox="0 0 1968 805.2" width="1968" height="805.2" xmlns="http://www.w3.org/2000/svg" xmlns:xlink="http://www.w3.org/1999/xlink" version="1.1"><rect x="0" y="0" width="1968" height="805.2" fill="#002233"></rect><path d="M1070 805L1087 785.8C1104 766.7 1138 728.3 1147.7 690C1157.3 651.7 1142.7 613.3 1101.7 575C1060.7 536.7 993.3 498.3 914.7 460C836 421.7 746 383.3 788.7 345C831.3 306.7 1006.7 268.3 1100.7 230C1194.7 191.7 1207.3 153.3 1183 115C1158.7 76.7 1097.3 38.3 1066.7 19.2L1036 0L1968 0L1968 19.2C1968 38.3 1968 76.7 1968 115C1968 153.3 1968 191.7 1968 230C1968 268.3 1968 306.7 1968 345C1968 383.3 1968 421.7 1968 460C1968 498.3 1968 536.7 1968 575C1968 613.3 1968 651.7 1968 690C1968 728.3 1968 766.7 1968 785.8L1968 805Z" fill="#FFFFFF" stroke-linecap="round" stroke-linejoin="miter"></path></svg>