<svg id="visual" viewBox="0 0 973 722" width="973" height="722" xmlns="http://www.w3.org/2000/svg" xmlns:xlink="http://www.w3.org/1999/xlink" version="1.1"><path d="M276 722L305 698C334 674 392 626 437.7 577.8C483.3 529.7 516.7 481.3 548.8 433.2C581 385 612 337 579.5 288.8C547 240.7 451 192.3 413.5 144.2C376 96 397 48 407.5 24L418 0L973 0L973 24C973 48 973 96 973 144.2C973 192.3 973 240.7 973 288.8C973 337 973 385 973 433.2C973 481.3 973 529.7 973 577.8C973 626 973 674 973 698L973 722Z" fill="#50D2D2" stroke-linecap="round" stroke-linejoin="miter"></path></svg>